<?xml version="1.0" encoding="UTF-8"?>
<svg version="1.1" viewBox="0 0 1600 1600" width="1280" height="1280" xmlns="http://www.w3.org/2000/svg">
<path transform="translate(0)" d="m0 0h1600v1600h-1600v-1600z" fill="#FBFEFE"/>
<path transform="translate(857,394)" d="m0 0c1.11 0.236 2.21 0.471 3.35 0.714 27.6 6 55 15.6 80.6 27.3 1.12 0.513 2.25 1.03 3.41 1.55 23 10.6 45.3 22.6 66 37.3 2.43 1.69 4.93 3.26 7.44 4.82 4.46 2.8 8.68 5.83 12.9 8.95 4.14 3.02 8.4 5.86 12.6 8.73 6.65 4.51 13.1 9.2 19.4 14.2 3.64 2.81 7.43 5.38 11.2 7.96 6.02 4.08 11.8 8.35 17.5 12.8 4.11 3.18 8.32 6.2 12.5 9.23 5.97 4.29 11.9 8.63 17.8 13.1 4.01 2.98 8.06 5.9 12.1 8.81 5.3 3.81 10.5 7.67 15.7 11.7 5.92 4.6 12 8.84 18.2 13 3.36 2.29 6.68 4.64 9.99 7.01 24.9 17.8 51 34.2 77.6 49.4 2.76 1.59 5.51 3.2 8.26 4.82 12.5 7.33 25 14.4 37.8 21.3 3.77 2.05 7.52 4.14 11.3 6.24 17.5 9.74 35.1 19.1 52.9 28.3 7.01 3.62 14 7.29 20.9 11 2.61 1.36 5.21 2.66 7.87 3.92 0.743 0.357 1.49 0.713 2.25 1.08 1.43 0.684 2.87 1.36 4.32 2.01 4.8 2.3 4.8 2.3 5.96 5.02 0.0271 0.874 0.0271 0.874 0.0547 1.77-0.638 0.133-1.28 0.266-1.93 0.402-0.826 0.177-1.65 0.353-2.5 0.535-0.824 0.174-1.65 0.348-2.5 0.527-2.04 0.343-2.04 0.343-3.07 1.54-1.44 0.309-2.88 0.578-4.33 0.828-5.99 1.15-11.6 3-17.4 4.92-10.7 3.51-21.5 6.59-32.4 9.49-5.06 1.36-10.1 2.78-15.1 4.2-2.1 0.591-4.21 1.18-6.31 1.77-1.05 0.295-2.1 0.59-3.18 0.894-3.21 0.9-6.42 1.79-9.63 2.68-6.19 1.72-12.4 3.46-18.6 5.21-1.27 0.361-1.27 0.361-2.57 0.729-22.9 6.53-45.3 14.5-67.4 23.3-1.71 0.673-1.71 0.673-3.46 1.36-7.11 2.87-13.9 6.25-20.8 9.74-1.74 0.88-3.5 1.73-5.25 2.59-14.6 7.12-28 15.9-41.5 24.9-1.79 1.2-3.58 2.39-5.39 3.56-6.91 4.52-13.5 9.39-20 14.5-1.69 1.32-3.39 2.63-5.09 3.94-13.9 10.7-26.8 22.4-39.6 34.5-2.02 1.91-4.06 3.81-6.1 5.7-16.3 15.1-16.3 15.1-31.4 31.4-2.41 2.74-5.03 5.25-7.62 7.81-1.78 1.81-3.43 3.67-5.07 5.6-3.43 4-7.14 7.67-10.9 11.4-4.24 4.2-8.38 8.4-12.2 13-2.32 2.7-4.73 5.31-7.14 7.92-3.4 3.69-6.78 7.39-10.1 11.1-1.5 1.67-3 3.33-4.5 5-0.734 0.821-1.47 1.64-2.22 2.49-7.77 8.6-15.9 16.8-24.1 25-2.35 2.35-4.7 4.7-7.05 7.05-1.52 1.52-3.04 3.04-4.56 4.55-0.69 0.692-1.38 1.38-2.09 2.1-4.49 4.47-9.15 8.69-14 12.8-1.63 1.45-3.25 2.91-4.88 4.38-0.848 0.763-1.7 1.53-2.57 2.31-1.65 1.49-3.29 2.99-4.92 4.5-6.34 5.82-13 11.1-19.8 16.4-2.39 1.85-4.76 3.72-7.13 5.59-2.33 1.84-4.67 3.67-7.01 5.5-1.6 1.25-3.19 2.51-4.78 3.78-29.3 22.9-61.9 42.4-95.9 57.5-0.728 0.324-1.46 0.648-2.21 0.982-24 10.5-51.2 20.4-77.3 22.8-2.46 0.108-2.46 0.108-4.46 1.25-16.5 1.74-33.4 1.19-50 1-0.919-0.00725-1.84-0.0145-2.78-0.022-21.2-0.258-42.1-5.66-62.2-12-1.01-0.303-2.03-0.606-3.07-0.918-10.8-3.53-21-9.68-30.8-15.3-1.69-0.949-1.69-0.949-3.41-1.92-1.45-0.839-1.45-0.839-2.93-1.7-3.26-1.39-5.25-1.67-8.76-1.18-2.68 1.53-2.68 1.53-5.06 3.69-0.816 0.684-1.63 1.37-2.47 2.07-2.57 2.34-5.01 4.77-7.46 7.24-7.69 7.4-15.5 14.5-24 21-1.07 0.846-2.13 1.69-3.2 2.54-36.6 29.1-75.4 52.3-121 62.7-0.713 0.163-1.43 0.326-2.16 0.494-38.5 8.43-79.2-2.89-112-22.7-8-5.15-15.1-11.5-22-18-0.822-0.77-1.64-1.54-2.49-2.33-24.6-23.7-41-57.7-41.9-92-0.347-32.8 9.71-61.8 32.4-85.7 0.455-0.483 0.911-0.965 1.38-1.46 21.2-22.3 47.4-34.4 76.6-42.5 0.66 0.66 1.32 1.32 2 2-2.19 3.5-4.48 6.61-7.25 9.68-3.66 4.15-6.92 8.5-10.1 13-0.562 0.787-1.12 1.57-1.7 2.39-1.13 1.58-2.25 3.16-3.37 4.74-1.35 1.9-2.71 3.79-4.07 5.68-17.9 25.2-30.8 53.9-25.9 85.5 5.07 24.9 18.6 45.5 39.9 59.5 12.7 8.04 26.6 14.3 41.6 16.4 0.733 0.128 1.47 0.255 2.22 0.387 22.5 3.34 45.1-1.72 65.8-10.4 0.963-0.393 0.963-0.393 1.95-0.795 13.7-5.61 26.3-12.7 39.1-20.2 0.842-0.495 1.68-0.989 2.55-1.5 10.2-6.02 19.9-12.5 29.4-19.5 6.49-4.79 13-9.36 19.9-13.6 2.23-1.27 2.23-1.27 3.12-3.45-1.89-4.84-4.55-9.4-7.38-13.8-12.1-19.1-18.9-42.6-15.6-65.2 0.158-1.09 0.158-1.09 0.32-2.21 2.01-13.2 5.91-24.8 11.7-36.8l0.969-2.03c6.45-13.3 14.6-25.9 24.8-36.6 1.91-2.03 3.73-4.09 5.55-6.19 9.31-10.7 19.5-20.5 30.7-29.2 1.19-0.961 2.37-1.92 3.55-2.89 7.9-6.44 16-12.4 24.4-18.1 1.05-0.743 2.1-1.48 3.18-2.25 2.82-1.75 2.82-1.75 5.82-1.75 2.12 5.62 2.12 5.62 1 9 0.0961 3.95 0.498 7.78 2 11.4 1.31 3.36 1.48 6.58 1.75 10.2 0.231 2.25 0.516 4.26 1.25 6.4 0.66 0.33 1.32 0.66 2 1v5c0.959 0.155 0.959 0.155 1.94 0.312 0.681 0.227 1.36 0.454 2.06 0.688 0.33 0.99 0.66 1.98 1 3-2 1.86-4 3.71-6 5.56-0.597 0.553-1.19 1.11-1.81 1.68-3.1 2.86-6.22 5.67-9.44 8.39-20.5 17.8-39.1 45.3-42 72.7-0.538 10.5 3.57 21.8 9.25 30.6 2.72 2.22 2.72 2.22 5.3 1.96 3.71-1.33 6.12-3.71 8.89-6.4 0.568-0.538 1.14-1.08 1.72-1.63 4.28-4.08 8.46-8.25 12.6-12.5 2.01-1.96 4.05-3.79 6.18-5.62 5.03-4.36 9.66-9.09 14.3-13.8 5.31-5.39 10.6-10.7 16.4-15.6 1.98-1.7 3.8-3.51 5.61-5.39 1.67-1.67 3.33-3.33 5-5 0.599-0.611 1.2-1.22 1.82-1.85 3.83-3.89 7.75-7.57 11.9-11.1 8.88-7.78 17.4-16 26-24.1 4.83-4.55 9.68-9.07 14.6-13.6 2.77-2.55 5.53-5.11 8.27-7.69 6.18-5.8 12.4-11.4 19-16.7 2.14-1.73 4.2-3.51 6.25-5.34 5.83-5.16 12-9.85 18.2-14.6 0.911-0.712 1.82-1.42 2.76-2.16 5.99-4.67 5.99-4.67 8.42-6.34 2.1-1.46 2.1-1.46 2.82-4.5 0.908-0.103 1.82-0.206 2.75-0.312 3.21-0.395 3.21-0.395 4.94-2.21 3.37-2.16 6.62-1.88 10.5-1.79 0.816 0.00983 1.63 0.0197 2.47 0.0298 7.17 0.143 14.3 0.614 21.5 1.16 1.04 0.0782 2.08 0.156 3.16 0.237 16.6 1.4 16.6 1.4 20.8 5.51 0.959 1.18 0.959 1.18 1.94 2.38-11.4 11.7-24.1 22.4-37.2 32.3-5.06 3.84-9.88 7.94-14.7 12.1-2.85 2.44-5.76 4.8-8.68 7.15-5.07 4.13-9.87 8.5-14.7 12.9-2.24 2.07-4.52 4.08-6.84 6.05-4.23 3.66-8.12 7.65-12 11.7-2.16 2.17-4.43 4.19-6.75 6.19-4.26 3.69-8.21 7.63-12.2 11.7-1.33 1.36-2.66 2.71-4 4.06-0.578 0.589-1.15 1.18-1.75 1.79-1.91 1.83-3.86 3.54-5.86 5.26-4.48 3.91-8.71 8.04-12.9 12.2-0.811 0.804-1.62 1.61-2.46 2.44-2.65 2.63-5.3 5.27-7.95 7.91-1.36 1.36-1.36 1.36-2.75 2.74-4.3 4.28-8.6 8.57-12.9 12.9-4.95 4.94-9.91 9.87-14.9 14.8-4.31 4.28-8.62 8.57-12.9 12.9-1.83 1.82-3.66 3.64-5.49 5.46-2.55 2.53-5.1 5.07-7.63 7.62-0.764 0.751-1.53 1.5-2.31 2.27-0.687 0.694-1.37 1.39-2.08 2.1-0.602 0.599-1.2 1.2-1.82 1.82-1.66 1.95-1.66 1.95-1.27 5.77 27.8 6.88 27.8 6.88 56 11 1.1 0.101 1.1 0.101 2.21 0.203 31.9 2.73 63.4-2.37 93.8-12.2 0.9-0.288 1.8-0.577 2.73-0.874 11.9-3.88 23.2-8.81 34.5-14.3 0.614-0.296 1.23-0.591 1.86-0.896 7.53-3.64 14.8-7.53 21.9-12 0.829-0.515 1.66-1.03 2.51-1.56 2.85-1.78 5.67-3.61 8.49-5.44 0.747-0.485 1.49-0.97 2.26-1.47 17.1-11.2 33.3-23.1 48.7-36.5 0.712-0.611 1.42-1.22 2.16-1.85 4.93-4.27 9.73-8.69 14.5-13.1 1.81-1.66 3.62-3.31 5.46-4.94 6.35-5.65 12.4-11.5 18.4-17.5 0.978-0.977 1.96-1.95 2.93-2.93 2.03-2.03 4.06-4.06 6.09-6.09 2.58-2.58 5.16-5.16 7.75-7.74 2.01-2.01 4.03-4.02 6.04-6.04 1.41-1.41 2.82-2.81 4.23-4.22 4.45-4.47 8.78-8.98 12.9-13.8 2.83-3.28 5.81-6.42 8.77-9.58 0.648-0.691 1.3-1.38 1.96-2.09 5.48-5.82 11.1-11.5 16.8-17.1 3.71-3.66 7.29-7.41 10.8-11.2 0.524-0.568 1.05-1.14 1.59-1.72 3.65-3.96 7.24-7.97 10.8-12 2.19-2.42 4.5-4.7 6.82-7 0.974-0.978 1.95-1.96 2.92-2.94 2.85-2.87 5.7-5.73 8.55-8.59 1.22-1.23 2.44-2.45 3.66-3.68 12-12.1 12-12.1 18.3-17.5 1.96-1.68 3.76-3.48 5.55-5.33 3.84-3.88 7.86-7.45 12-11 1.05-0.917 2.11-1.84 3.16-2.75 16.8-14.6 34.6-28 53.8-39.2 0.758-0.443 1.52-0.886 2.3-1.34 45.2-26.3 91-44.2 142-56.7v-3-2c-0.554-0.166-1.11-0.332-1.68-0.502-5.57-1.75-10.5-3.97-15.6-6.87-0.768-0.434-1.54-0.867-2.33-1.31-8.67-4.94-17.1-10.2-25.6-15.5-2.99-1.87-5.98-3.73-8.98-5.59-10.4-6.46-20.7-13-30.9-19.8-2.32-1.56-4.65-3.11-6.99-4.65-14.6-9.67-29-19.6-42.9-30.1-7.19-5.42-14.5-10.7-21.8-15.9-3.77-2.71-7.52-5.42-11.3-8.14-1.5-1.08-3-2.16-4.5-3.25-3.01-2.18-6.03-4.36-9.04-6.54-14.4-10.4-28.9-20.6-43.5-30.7-0.963-0.669-1.93-1.34-2.92-2.03-3.36-2.33-6.72-4.65-10.1-6.97-0.796-0.55-1.59-1.1-2.41-1.67-17.5-12.1-35.2-23.6-53.6-34.3-0.635-0.372-1.27-0.744-1.92-1.13-8.88-5.18-17.9-9.81-27.3-14.1-3.01-1.38-5.95-2.86-8.89-4.4-5.25-2.65-10.7-4.64-16.2-6.64-3.38-1.23-6.73-2.53-10.1-3.87-15.3-6.02-30.6-10.2-46.6-13.9-0.88-0.205-1.76-0.409-2.67-0.62-13.1-3.03-26.3-5.05-39.6-6.99-1.61-0.236-3.23-0.477-4.84-0.728-3.26-0.5-6.37-0.758-9.66-0.666-3.97 0.109-3.97 0.109-6.19-1-4.56-0.253-9.12-0.194-13.7-0.188-0.672-6.04e-5 -1.34-1.21e-4 -2.04-1.83e-4 -9.04 0.0116-18 0.272-27 1.06-0.895 0.0784-1.79 0.157-2.71 0.238-5.94 0.585-11.7 1.62-17.5 2.89-0.731 0.155-1.46 0.311-2.21 0.471-4.53 0.971-9.04 1.99-13.6 3.02-1.96 0.445-3.93 0.875-5.9 1.3-10.9 2.52-21.5 6.14-32 9.76-0.64 0.218-1.28 0.436-1.94 0.66-1.76 0.601-3.52 1.21-5.29 1.81-2.69 0.848-5.29 1.48-8.07 1.97 0.33 1.65 0.66 3.3 1 5 0.908 0.0825 1.82 0.165 2.75 0.25 9.91 1.44 19.2 5.87 28.1 10.2 1.08 0.524 2.15 1.05 3.26 1.59 3.32 1.63 6.62 3.27 9.93 4.91 1.01 0.501 2.02 1 3.07 1.52 13.1 6.52 25.4 13.7 37.6 21.9 3.91 2.62 7.86 5.16 11.8 7.72 0.692 0.449 1.38 0.899 2.1 1.36 0.647 0.42 1.29 0.839 1.96 1.27 0.602 0.392 1.2 0.784 1.82 1.19 1.49 0.935 3.04 1.78 4.59 2.61 2.09 1.45 2.09 1.45 2.9 3.63 0.0619 0.598 0.124 1.2 0.188 1.81-7.65-0.978-14.7-3.08-21.9-5.7-12.6-4.44-26-6.24-39.1-8.46-2.74-0.465-5.47-0.936-8.21-1.41-1.77-0.302-3.54-0.605-5.32-0.906-0.801-0.139-1.6-0.277-2.43-0.42-4.98-0.838-9.94-1.43-15-1.84-2.05-0.263-2.05-0.263-4.05-1.26-4.78-0.682-9.6-1.1-14.4-1.54-0.73-0.0679-1.46-0.136-2.21-0.206-16.5-1.5-33-1.68-49.6-1.57-3.03 0.0137-6.06 0.00821-9.08 0.00287-2.97-0.00335-5.93 0.00331-8.9 0.0131-1.39 0.00379-2.78 0.00502-4.17 0.00341-6.95-0.00135-13.5 0.243-20.2 1.81-3.51 0.726-7.02 0.979-10.6 1.27-4.78 0.393-9.54 0.957-14.3 1.5-1.07 0.121-2.13 0.242-3.23 0.366-40.5 4.59-40.5 4.59-80.6 11.6-8.2 1.69-16.4 2.89-24.7 3.73-0.33-0.66-0.66-1.32-1-2 3.93-4.63 8.58-7.16 13.8-10.1 3.88-2.29 7.45-4.89 11.1-7.58 14.8-11 30.1-21.3 45.4-31.5 8.97-5.96 17.8-12.1 26.7-18.3 11.5-8.08 23.1-16 35-23.5 0.975-0.632 1.95-1.26 2.95-1.91 17-10.8 35.3-19.6 54-27.1 0.955-0.383 1.91-0.766 2.89-1.16 13.2-5.23 26.4-9.63 40.1-13.1 3.22-0.818 6.42-1.68 9.63-2.54 59.4-15.7 120-13.1 179-0.219z" fill="#479EFB"/>
<path transform="translate(761 852)" d="m0 0c0.816 0.00983 1.63 0.0197 2.47 0.0298 7.17 0.143 14.3 0.614 21.5 1.16 1.56 0.117 1.56 0.117 3.16 0.237 16.6 1.4 16.6 1.4 20.8 5.51 0.959 1.18 0.959 1.18 1.94 2.38-11.4 11.7-24.1 22.4-37.2 32.3-5.06 3.84-9.88 7.94-14.7 12.1-2.85 2.44-5.76 4.8-8.68 7.15-5.07 4.13-9.87 8.5-14.7 12.9-2.24 2.07-4.52 4.08-6.84 6.05-4.23 3.66-8.12 7.65-12 11.7-2.16 2.17-4.43 4.19-6.75 6.19-4.26 3.69-8.21 7.63-12.2 11.7-1.33 1.36-2.66 2.71-4 4.06-0.577 0.589-1.15 1.18-1.75 1.79-1.91 1.83-3.86 3.54-5.86 5.26-4.47 3.91-8.69 8.04-12.9 12.2-0.808 0.804-1.62 1.61-2.45 2.44-2.64 2.63-5.28 5.27-7.92 7.91-1.84 1.84-3.69 3.68-5.53 5.52-3.85 3.85-7.7 7.7-11.6 11.5-4.45 4.45-8.9 8.89-13.4 13.3-4.3 4.28-8.59 8.57-12.9 12.9-1.82 1.82-3.65 3.64-5.47 5.46-2.54 2.53-5.08 5.08-7.62 7.62-0.756 0.751-1.51 1.5-2.29 2.27-0.69 0.694-1.38 1.39-2.09 2.1-0.6 0.599-1.2 1.2-1.82 1.82-1.61 1.72-1.61 1.72-2.56 3.94-0.961 1.83-0.961 1.83-3.67 2.7-4.36 1.49-6.75 4-9.98 7.19-1.24 1.19-2.48 2.37-3.72 3.56-0.609 0.58-1.22 1.16-1.84 1.76-2.37 2.2-4.85 4.23-7.37 6.25-4.5 3.6-8.73 7.41-12.9 11.3-3.95 3.66-8.08 7.02-12.4 10.3-2.09 1.78-3.61 3.42-5.06 5.75v3c-0.969 0.186-1.94 0.371-2.94 0.562-7.36 2.09-12.8 8.16-18.1 13.4-7.69 7.4-15.5 14.5-24 21-1.07 0.846-2.13 1.69-3.2 2.54-36.6 29.1-75.4 52.3-121 62.7-0.713 0.163-1.43 0.326-2.16 0.494-38.5 8.43-79.2-2.89-112-22.7-8-5.15-15.1-11.5-22-18-0.822-0.77-1.64-1.54-2.49-2.33-24.6-23.7-41-57.7-41.9-92-0.347-32.8 9.71-61.8 32.4-85.7 0.455-0.483 0.911-0.965 1.38-1.46 21.2-22.3 47.4-34.4 76.6-42.5 0.66 0.66 1.32 1.32 2 2-2.19 3.5-4.48 6.61-7.25 9.68-3.66 4.15-6.92 8.5-10.1 13-0.562 0.787-1.12 1.57-1.7 2.39-1.13 1.58-2.25 3.16-3.37 4.74-1.35 1.9-2.71 3.79-4.07 5.68-17.9 25.2-30.8 53.9-25.9 85.5 5.07 24.9 18.6 45.5 39.9 59.5 12.7 8.04 26.6 14.3 41.6 16.4l2.22 0.387c22.5 3.34 45.1-1.72 65.8-10.4 0.963-0.393 0.963-0.393 1.95-0.795 13.7-5.61 26.3-12.7 39.1-20.2 1.26-0.742 1.26-0.742 2.55-1.5 10.2-6.02 19.9-12.5 29.4-19.5 6.49-4.79 13-9.36 19.9-13.6 2.23-1.27 2.23-1.27 3.12-3.45-1.89-4.84-4.55-9.4-7.38-13.8-12.1-19.1-18.9-42.6-15.6-65.2 0.158-1.09 0.158-1.09 0.32-2.21 2.01-13.2 5.91-24.8 11.7-36.8l0.969-2.03c6.45-13.3 14.6-25.9 24.8-36.6 1.91-2.03 3.73-4.09 5.55-6.19 9.31-10.7 19.5-20.5 30.7-29.2 1.19-0.961 2.37-1.92 3.55-2.89 7.9-6.44 16-12.4 24.4-18.1 1.05-0.742 2.1-1.49 3.18-2.25 2.82-1.75 2.82-1.75 5.82-1.75 2.12 5.62 2.12 5.62 1 9 0.0961 3.95 0.498 7.78 2 11.4 1.31 3.36 1.48 6.58 1.75 10.2 0.231 2.25 0.516 4.26 1.25 6.4l2 1v5c0.639 0.103 1.28 0.206 1.94 0.312 0.681 0.227 1.36 0.454 2.06 0.688 0.33 0.99 0.66 1.98 1 3-2 1.86-4 3.71-6 5.56-0.597 0.553-1.19 1.11-1.81 1.68-3.1 2.86-6.22 5.67-9.44 8.39-20.5 17.8-39.1 45.3-42 72.7-0.538 10.5 3.57 21.8 9.25 30.6 2.72 2.22 2.72 2.22 5.3 1.96 3.71-1.33 6.12-3.71 8.89-6.4 0.568-0.538 1.14-1.08 1.72-1.63 4.28-4.08 8.46-8.25 12.6-12.5 2.01-1.96 4.05-3.79 6.18-5.62 5.03-4.36 9.66-9.09 14.3-13.8 5.31-5.39 10.6-10.7 16.4-15.6 1.98-1.7 3.8-3.51 5.61-5.39 1.67-1.67 3.33-3.33 5-5 0.899-0.917 0.899-0.917 1.82-1.85 3.83-3.89 7.75-7.57 11.9-11.1 8.88-7.78 17.4-16 26-24.1 4.83-4.55 9.68-9.07 14.6-13.6 2.77-2.55 5.53-5.11 8.27-7.69 6.18-5.8 12.4-11.4 19-16.7 2.14-1.73 4.2-3.51 6.25-5.34 5.83-5.16 12-9.85 18.2-14.6 1.37-1.07 1.37-1.07 2.76-2.16 5.99-4.67 5.99-4.67 8.42-6.34 2.1-1.46 2.1-1.46 2.82-4.5 1.36-0.155 1.36-0.155 2.75-0.312 3.21-0.395 3.21-0.395 4.94-2.21 3.37-2.16 6.62-1.88 10.5-1.79z" fill="#479EFB"/>
<path transform="translate(1265,698)" d="m0 0c25.7 0.17 51.3 0.565 76.9 2.88 0.929 0.0811 1.86 0.162 2.81 0.246 18.4 1.64 36.8 4.83 53.2 13.9-0.33 1.32-0.66 2.64-1 4-0.586 0.101-1.17 0.202-1.77 0.306-6.87 1.27-13.4 3.24-20 5.44-10.7 3.51-21.5 6.59-32.4 9.49-5.06 1.36-10.1 2.78-15.1 4.2-2.1 0.591-4.21 1.18-6.31 1.77-1.57 0.442-1.57 0.442-3.18 0.894-3.21 0.9-6.42 1.79-9.63 2.68-6.19 1.72-12.4 3.46-18.6 5.21-1.27 0.361-1.27 0.361-2.57 0.729-22.9 6.53-45.3 14.5-67.4 23.3-1.71 0.673-1.71 0.673-3.46 1.36-7.11 2.87-13.9 6.25-20.8 9.74-1.74 0.88-3.5 1.73-5.25 2.59-14.6 7.12-28 15.9-41.5 24.9-1.79 1.2-3.58 2.39-5.39 3.56-6.91 4.52-13.5 9.39-20 14.5-1.69 1.32-3.39 2.63-5.09 3.94-13.9 10.7-26.8 22.4-39.6 34.5-2.02 1.91-4.06 3.81-6.1 5.7-16.3 15.1-16.3 15.1-31.4 31.4-2.41 2.74-5.03 5.25-7.62 7.81-1.78 1.81-3.43 3.67-5.07 5.6-3.43 4-7.14 7.67-10.9 11.4-4.24 4.2-8.38 8.4-12.2 13-2.32 2.7-4.73 5.31-7.14 7.92-3.4 3.69-6.78 7.39-10.1 11.1-1.5 1.67-3 3.33-4.5 5-1.1 1.23-1.1 1.23-2.22 2.49-7.77 8.6-15.9 16.8-24.1 25-2.35 2.35-4.7 4.7-7.05 7.05-1.52 1.52-3.04 3.04-4.56 4.55-0.69 0.692-1.38 1.38-2.09 2.1-4.49 4.47-9.15 8.69-14 12.8-1.63 1.45-3.25 2.91-4.88 4.38-0.848 0.763-1.7 1.53-2.57 2.31-1.65 1.49-3.29 2.99-4.92 4.5-6.34 5.82-13 11.1-19.8 16.4-2.39 1.85-4.76 3.72-7.13 5.59-2.33 1.84-4.67 3.67-7.01 5.5-1.6 1.25-3.19 2.51-4.78 3.78-29.3 22.9-61.9 42.4-95.9 57.5-0.728 0.324-1.46 0.648-2.21 0.982-24 10.5-51.2 20.4-77.3 22.8-2.46 0.108-2.46 0.108-4.46 1.25-16.5 1.74-33.4 1.19-50 1-0.919-0.00725-1.84-0.0145-2.78-0.022-21.2-0.258-42.1-5.66-62.2-12-1.01-0.303-2.03-0.606-3.07-0.918-8.68-2.83-16.6-7.51-24.6-11.9-2.11-1.13-4.24-2.22-6.38-3.3-1.17-0.597-2.34-1.19-3.55-1.81-1.02-0.513-2.05-1.03-3.1-1.55-2.27-1.57-2.27-1.57-3.29-3.53 0.0208-3.62 2.43-5.37 4.8-7.91 3.01-2.9 6.24-5.45 9.55-8 2.82-2.25 5.46-4.62 8.11-7.07 4.44-4.09 9.03-7.92 13.7-11.7 2.59-2.17 5.03-4.43 7.47-6.77 4.79-4.57 8.8-7.97 15.4-9.6v2c27.8 6.88 27.8 6.88 56 11 1.1 0.101 1.1 0.101 2.21 0.203 31.9 2.73 63.4-2.37 93.8-12.2 1.35-0.432 1.35-0.432 2.73-0.874 11.9-3.88 23.2-8.81 34.5-14.3 0.614-0.296 1.23-0.591 1.86-0.896 7.53-3.64 14.8-7.53 21.9-12 1.24-0.773 1.24-0.773 2.51-1.56 2.85-1.78 5.67-3.61 8.49-5.44 0.747-0.485 1.49-0.97 2.26-1.47 17.1-11.2 33.3-23.1 48.7-36.5 1.07-0.917 1.07-0.917 2.16-1.85 4.93-4.27 9.73-8.69 14.5-13.1 1.81-1.66 3.62-3.31 5.46-4.94 6.35-5.65 12.4-11.5 18.4-17.5 0.978-0.977 1.96-1.95 2.93-2.93 2.03-2.03 4.06-4.06 6.09-6.09 2.58-2.58 5.16-5.16 7.75-7.74 2.01-2.01 4.03-4.02 6.04-6.04 1.41-1.41 2.82-2.81 4.23-4.22 4.45-4.47 8.78-8.98 12.9-13.8 2.83-3.28 5.81-6.42 8.77-9.58 0.648-0.691 1.3-1.38 1.96-2.09 5.48-5.82 11.1-11.5 16.8-17.1 3.71-3.66 7.29-7.41 10.8-11.2 0.524-0.568 1.05-1.14 1.59-1.72 3.65-3.96 7.24-7.97 10.8-12 2.19-2.42 4.5-4.7 6.82-7 0.974-0.978 1.95-1.96 2.92-2.94 2.85-2.87 5.7-5.73 8.55-8.59 1.22-1.23 2.44-2.45 3.66-3.68 12-12.1 12-12.1 18.3-17.5 1.96-1.68 3.76-3.48 5.55-5.33 3.84-3.88 7.86-7.45 12-11 1.05-0.917 2.11-1.84 3.16-2.75 16.8-14.6 34.6-28 53.8-39.2 0.758-0.443 1.52-0.886 2.3-1.34 38.3-22.3 78-41.1 121-51.5 1.28-0.309 2.56-0.618 3.87-0.936 2.53-0.607 5.07-1.2 7.61-1.78 1.15-0.275 2.31-0.551 3.49-0.834 1.03-0.239 2.07-0.479 3.13-0.725 0.776-0.293 1.55-0.586 2.35-0.888 0.33-0.99 0.66-1.98 1-3z" fill="#FA5CB0"/>
<path transform="translate(880 793)" d="m0 0c0.771-5.89e-4 1.54-0.00118 2.34-0.00179 4.48-0.00292 8.96 0.00107 13.4 0.0153 1.38 0.00399 2.77 0.00652 4.15 0.0075 1.92 0.00214 3.83 0.0115 5.75 0.0213 1.08 0.00381 2.16 0.00762 3.27 0.0116 3.11 0.137 6.01 0.434 9.05 1.13 1.38 2.06 1.38 2.06 2 4-8.26 4.99-16.5 9.89-25.2 14.1-14.4 7.06-28.1 15.6-41.8 23.9-1.12 0.678-2.24 1.36-3.39 2.05-8.1 4.95-16.1 10.1-24.1 15.2-0.913 0.584-1.83 1.17-2.77 1.77-0.818 0.525-1.64 1.05-2.48 1.59-5.62 3.44-5.62 3.44-8.64 3.2-2.62-0.812-2.62-0.812-5.32-2.29-3.68-1.7-6.71-2.2-10.7-2.64-0.7-0.0778-1.4-0.156-2.12-0.236-7.13-0.766-14.3-1.35-21.4-1.64-0.789-0.034-1.58-0.068-2.39-0.103-2.54-0.0966-5.07-0.158-7.61-0.209-0.789-0.0298-1.58-0.0596-2.39-0.0903-5.76-0.0576-8.74 1.41-13.6 4.4-0.99-0.33-1.98-0.66-3-1-0.0503 0.568-0.101 1.14-0.152 1.72-1.26 3.39-3.5 4.6-6.41 6.71-1.19 0.881-2.37 1.76-3.56 2.65-0.63 0.469-1.26 0.938-1.91 1.42-3.43 2.6-6.76 5.33-10.1 8.06-0.681 0.557-1.36 1.11-2.06 1.69-1.33 1.09-2.66 2.17-3.99 3.26-1.6 1.31-3.21 2.6-4.83 3.89-6.24 5.02-12.1 10.3-18 15.8-2.42 2.26-4.88 4.45-7.39 6.61-3.07 2.65-5.91 5.45-8.75 8.34-1.81 1.78-3.67 3.44-5.59 5.09-4.19 3.65-8.25 7.43-12.3 11.2-1.49 1.41-2.98 2.81-4.46 4.21-0.75 0.709-1.5 1.42-2.27 2.15-3.6 3.4-7.21 6.8-10.8 10.2-0.63 0.594-1.26 1.19-1.91 1.8-3.84 3.61-7.76 7.11-11.8 10.5-1.69 1.55-3.09 3.13-4.51 4.92-2.17 2.6-3.33 3.28-6.25 4.69-0.578 0.722-1.16 1.44-1.75 2.19-1.84 2.3-3.42 3.88-5.64 5.74-5.84 5.05-11.2 10.6-16.6 16.1-11.9 12.1-11.9 12.1-18.3 17.5-2.76 2.41-5.31 5.02-7.87 7.65-10.1 10.4-10.1 10.4-14.4 11.6-3.64-1.03-5.36-3.68-7.44-6.69-1.28-2.45-2.28-4.97-3.25-7.56-0.255-0.646-0.51-1.29-0.773-1.96-5.72-14.8-2.08-29.1 3.52-43.4 6.43-14.2 16.2-26.6 26.5-38.1 0.721-0.842 1.44-1.68 2.18-2.55 4.27-4.95 8.83-9.24 13.8-13.4 1.84-1.57 3.68-3.16 5.5-4.75 0.856-0.737 1.71-1.47 2.59-2.23 2.25-1.92 2.25-1.92 1.91-5.02-1.65-0.33-3.3-0.66-5-1 0.0928-1.08 0.0928-1.08 0.188-2.19 0.0415-2.86 0.0415-2.86-1.62-5-1.97-3.54-2.03-6.48-2.32-10.5-0.147-2.43-0.147-2.43-1.25-4.84-1.94-4.85-2.66-10.5-1-15.5-0.239-2.61-0.239-2.61-1-5l-2-1c11.8-6.94 23.6-13.6 35.8-19.9 2.02-1.05 4.03-2.11 6.04-3.19 11.3-5.99 23.3-10.4 35.3-14.9 2.28-0.85 4.56-1.72 6.83-2.6 15.4-5.83 31.8-9.37 47.9-13 1.46-0.329 2.92-0.663 4.38-1 9.69-2.23 19.2-3.96 29.2-4.79 3.68-0.318 7.2-0.778 10.8-1.65 4.57-1.04 9.08-1.61 13.7-2.03 0.837-0.0807 1.67-0.161 2.54-0.244 2.73-0.26 5.47-0.509 8.2-0.756 0.957-0.0865 1.91-0.173 2.9-0.262 6.8-0.609 13.6-1.18 20.4-1.74 0.791-0.0649 1.58-0.13 2.4-0.197 23.8-1.93 47.7-1.98 71.6-1.99z" fill="#C475FB"/>
<path transform="translate(910,956)" d="m0 0c3.94 3.32 3.94 3.32 4.25 6.75-0.0825 0.742-0.165 1.49-0.25 2.25 0.969 0.268 1.94 0.536 2.94 0.812 1.52 0.588 1.52 0.588 3.06 1.19 0.33 0.99 0.66 1.98 1 3-1.65 0.66-3.3 1.32-5 2 0.33 0.99 0.66 1.98 1 3 0.66-0.66 1.32-1.32 2-2 1.56 3.22 2.01 4.87 1.62 8.5-0.00296 3.43-0.00296 3.43 1.87 4.99 4.6 3.03 9.14 4.46 14.5 5.51 0.102 0.624 0.204 1.25 0.309 1.89 0.553 2.48 0.553 2.48 3.75 3.86 0.969 0.413 1.94 0.825 2.94 1.25-0.66 0.33-1.32 0.66-2 1 0.371 0.908 0.743 1.82 1.12 2.75 0.875 3.25 0.875 3.25 0.312 5.09-2.08 3.12-4.78 5.49-7.56 7.97-0.883 0.802-0.883 0.802-1.78 1.62-3.66 3.31-7.35 6.59-11.1 9.81-2.42 2.12-4.77 4.32-7.12 6.51-5.78 5.27-11.9 10.1-18.1 14.9-2.38 1.84-4.75 3.71-7.11 5.57-2.33 1.84-4.67 3.67-7.01 5.5-1.6 1.25-3.19 2.51-4.78 3.78-29.3 22.9-61.9 42.4-95.9 57.5-0.728 0.324-1.46 0.648-2.21 0.982-24 10.5-51.2 20.4-77.3 22.8-2.46 0.108-2.46 0.108-4.46 1.25-16.5 1.74-33.4 1.19-50 1-0.919-0.00725-1.84-0.0145-2.78-0.022-21.2-0.258-42.1-5.66-62.2-12-1.01-0.303-2.03-0.606-3.07-0.918-8.68-2.83-16.6-7.51-24.6-11.9-2.11-1.13-4.24-2.22-6.38-3.3-1.76-0.895-1.76-0.895-3.55-1.81-1.02-0.513-2.05-1.03-3.1-1.55-2.27-1.57-2.27-1.57-3.29-3.53 0.0208-3.62 2.43-5.37 4.8-7.91 3.01-2.9 6.24-5.45 9.55-8 2.82-2.25 5.46-4.62 8.11-7.07 4.44-4.09 9.03-7.92 13.7-11.7 2.59-2.17 5.03-4.43 7.47-6.77 4.79-4.57 8.8-7.97 15.4-9.6v2c27.8 6.88 27.8 6.88 56 11 0.731 0.067 1.46 0.134 2.21 0.203 31.9 2.73 63.4-2.37 93.8-12.2 1.35-0.432 1.35-0.432 2.73-0.874 11.9-3.88 23.2-8.81 34.5-14.3 0.614-0.296 1.23-0.591 1.86-0.896 7.53-3.64 14.8-7.53 21.9-12 0.829-0.515 1.66-1.03 2.51-1.56 2.85-1.78 5.67-3.61 8.49-5.44 0.747-0.485 1.49-0.97 2.26-1.47 17.1-11.2 33.3-23.1 48.7-36.5 1.07-0.917 1.07-0.917 2.16-1.85 4.5-3.89 8.89-7.92 13.3-11.9 3.29-3.03 6.61-6.03 9.95-9.01 3.67-3.29 7.19-6.66 10.6-10.2z" fill="#C74458"/>
<path transform="translate(944 423)" d="m0 0c0.704 0.338 1.41 0.676 2.13 1.02 2.29 1.1 4.57 2.22 6.84 3.34 0.78 0.381 1.56 0.762 2.36 1.15 18.4 9.01 36.1 18.9 52.9 30.8 3.01 2.13 6.09 4.13 9.22 6.08 4.46 2.8 8.68 5.83 12.9 8.95 4.14 3.02 8.4 5.86 12.6 8.73 6.65 4.51 13.1 9.2 19.4 14.2 3.64 2.81 7.43 5.38 11.2 7.96 6.02 4.08 11.8 8.35 17.5 12.8 4.11 3.18 8.32 6.2 12.5 9.23 5.97 4.29 11.9 8.63 17.8 13.1 4.01 2.98 8.06 5.9 12.1 8.81 5.3 3.81 10.5 7.67 15.7 11.7 5.92 4.6 12 8.84 18.2 13 3.36 2.29 6.68 4.64 9.99 7.01 24.9 17.8 51 34.2 77.6 49.4 2.76 1.59 5.51 3.2 8.26 4.82 12.5 7.33 25 14.4 37.8 21.3 3.77 2.05 7.52 4.14 11.3 6.24 17.5 9.74 35.1 19.1 52.9 28.3 7.01 3.62 14 7.29 20.9 11 2.61 1.36 5.21 2.66 7.87 3.92 0.743 0.357 1.49 0.713 2.25 1.08 1.43 0.684 2.87 1.36 4.32 2.01 1.94 0.928 1.94 0.928 5.01 2.79 0.33 1.32 0.66 2.64 1 4-2.97 0.66-5.94 1.32-9 2v-3c-0.864-0.28-1.73-0.559-2.62-0.848-3.22-1.1-6.35-2.32-9.51-3.59-15.8-6.08-32.4-7.62-49.2-9.12-0.712-0.0648-1.42-0.13-2.16-0.196-17.1-1.51-34.1-1.74-51.3-1.95-1.06-0.0138-2.11-0.0276-3.2-0.0419-2-0.0248-4-0.0449-6-0.0597-0.889-0.0104-1.78-0.0208-2.69-0.0315-0.776-0.0065-1.55-0.013-2.35-0.0197-2.02-0.138-2.02-0.138-5.02-1.14v-2c-0.554-0.166-1.11-0.332-1.68-0.502-5.57-1.75-10.5-3.97-15.6-6.87-0.768-0.434-1.54-0.867-2.33-1.31-8.67-4.94-17.1-10.2-25.6-15.5-2.99-1.87-5.98-3.73-8.98-5.59-10.4-6.46-20.7-13-30.9-19.8-2.32-1.56-4.65-3.11-6.99-4.65-14.6-9.67-29-19.6-42.9-30.1-7.19-5.42-14.5-10.7-21.8-15.9-3.77-2.71-7.52-5.42-11.3-8.14-1.5-1.08-3-2.16-4.5-3.25-3.01-2.18-6.03-4.36-9.04-6.54-14.4-10.4-28.9-20.6-43.5-30.7-0.963-0.669-1.93-1.34-2.92-2.03-3.36-2.33-6.72-4.65-10.1-6.97-1.19-0.824-1.19-0.824-2.41-1.67-17.5-12.1-35.2-23.6-53.6-34.3-0.635-0.372-1.27-0.744-1.92-1.13-8.87-5.18-17.9-9.81-27.2-14.1-3.12-1.43-6.17-2.95-9.22-4.53-4.35-2.23-8.82-3.78-13.5-5.26-0.71-0.327-1.42-0.655-2.15-0.992-0.495-1.49-0.495-1.49-1-3 1.32-0.99 2.64-1.98 4-3 0.66 0.33 1.32 0.66 2 1 0.182-0.58 0.364-1.16 0.551-1.76 2.19-6.8 2.19-6.8 4.07-9.99 2.22-5.24 2.17-10.6 2.38-16.2 0.0529-1.19 0.106-2.37 0.16-3.59 0.347-7.3 0.347-7.3-3.16-13.4 0-2.62 0-2.62 1-5 6.22-3.91 12.4-0.605 18.4 2.32z" fill="#4E5CDE"/>
<path transform="translate(633,410)" d="m0 0c0.124 0.743 0.247 1.49 0.375 2.25 0.482 2.68 0.482 2.68 1.62 4.62 1.39 2.96 1.63 5.9 2 9.12-0.66 0.33-1.32 0.66-2 1 0.99 0.33 1.98 0.66 3 1-0.66 0.66-1.32 1.32-2 2 0.604 5.53 1.81 11.2 5.69 15.4 2.31 2.62 2.31 2.62 2.62 6-0.155 1.3-0.155 1.3-0.312 2.62 0.99-0.99 0.99-0.99 2-2 1.37 4.72 0.887 9.23 0 14-0.33 0.33-0.66 0.66-1 1-0.0409 2.33-0.0424 4.67 0 7h2v2c0.545-0.144 1.09-0.289 1.65-0.438 5.6-1.38 10.6-1.75 16.3-1.56v2c0.908 0.0825 1.82 0.165 2.75 0.25 9.91 1.44 19.2 5.87 28.1 10.2 1.08 0.524 2.15 1.05 3.26 1.59 3.32 1.63 6.62 3.27 9.93 4.91 1.01 0.501 2.02 1 3.07 1.52 13.1 6.52 25.4 13.7 37.6 21.9 3.91 2.62 7.86 5.16 11.8 7.72 1.04 0.674 1.04 0.674 2.1 1.36 0.971 0.629 0.971 0.629 1.96 1.27 0.602 0.392 1.2 0.784 1.82 1.19 1.49 0.935 3.04 1.78 4.59 2.61 2.09 1.45 2.09 1.45 2.9 3.63 0.0928 0.897 0.0928 0.897 0.188 1.81-7.65-0.978-14.7-3.08-21.9-5.7-12.6-4.44-26-6.24-39.1-8.46-2.74-0.465-5.47-0.936-8.21-1.41-1.77-0.302-3.54-0.605-5.32-0.906-0.801-0.139-1.6-0.277-2.43-0.42-4.98-0.838-9.94-1.43-15-1.84-2.05-0.263-2.05-0.263-4.05-1.26-4.78-0.682-9.6-1.1-14.4-1.54-0.73-0.0679-1.46-0.136-2.21-0.206-16.5-1.5-33-1.68-49.6-1.57-3.03 0.0137-6.06 0.00821-9.08 0.00287-2.97-0.00335-5.93 0.00331-8.9 0.0131-1.39 0.00379-2.78 0.00502-4.17 0.00341-6.95-0.00135-13.5 0.243-20.2 1.81-3.51 0.726-7.02 0.979-10.6 1.27-4.78 0.393-9.54 0.957-14.3 1.5-1.07 0.121-2.13 0.242-3.23 0.366-40.5 4.59-40.5 4.59-80.6 11.6-8.2 1.69-16.4 2.89-24.7 3.73-0.33-0.66-0.66-1.32-1-2 3.93-4.63 8.58-7.16 13.8-10.1 3.88-2.29 7.45-4.89 11.1-7.58 14.8-11 30.1-21.3 45.4-31.5 8.97-5.96 17.8-12.1 26.7-18.3 11.5-8.08 23.1-16 35-23.5 0.975-0.632 1.95-1.26 2.95-1.91 16.4-10.5 34-19 52-26.3 1.65-0.675 3.27-1.39 4.9-2.12 2.1-0.695 2.1-0.695 5.1 0.305z" fill="#3881F1"/>
<path transform="translate(584,862)" d="m0 0c2.12 5.62 2.12 5.62 1 9 0.0961 3.95 0.498 7.78 2 11.4 1.31 3.36 1.48 6.58 1.75 10.2 0.231 2.25 0.516 4.26 1.25 6.4 0.66 0.33 1.32 0.66 2 1v5c0.639 0.103 1.28 0.206 1.94 0.312 0.681 0.227 1.36 0.454 2.06 0.688 0.33 0.99 0.66 1.98 1 3-2 1.86-4 3.71-6 5.56-0.597 0.553-1.19 1.11-1.81 1.68-3.1 2.86-6.22 5.67-9.44 8.39-20.5 17.8-39.1 45.3-42 72.7-0.594 11.6 4.51 22.8 10.4 32.5 1.18 2.91 1.23 4.99 0.852 8.1-1.62 2.27-1.62 2.27-3.88 4.38-0.825 0.771-1.65 1.54-2.5 2.34-3.27 2.85-6.6 5.59-10 8.26-2.74 2.14-5.42 4.33-8.1 6.53-5.13 4.21-10.3 8.36-15.5 12.5-0.855 0.7-1.71 1.4-2.59 2.12-3.06 2.39-6.41 4.88-10.4 4.88-0.454-0.944-0.454-0.944-0.918-1.91-1.99-4.07-3.98-8.05-6.46-11.8-12.1-19.1-18.9-42.6-15.6-65.2 0.106-0.728 0.211-1.46 0.32-2.21 2.01-13.2 5.91-24.8 11.7-36.8 0.32-0.669 0.64-1.34 0.969-2.03 6.45-13.3 14.6-25.9 24.8-36.6 1.91-2.03 3.73-4.09 5.55-6.19 9.31-10.7 19.5-20.5 30.7-29.2 1.19-0.961 2.37-1.92 3.55-2.89 7.9-6.44 16-12.4 24.4-18.1 1.58-1.11 1.58-1.11 3.18-2.25 2.82-1.75 2.82-1.75 5.82-1.75z" fill="#4F5DDF"/>
<path transform="translate(744,855)" d="m0 0c-1.4 4.78-3.65 6.62-7.62 9.5-1.18 0.871-2.36 1.75-3.53 2.62-0.936 0.694-0.936 0.694-1.89 1.4-3.43 2.59-6.75 5.32-10.1 8.04-1.02 0.835-1.02 0.835-2.06 1.69-1.33 1.09-2.66 2.17-3.99 3.26-1.6 1.31-3.21 2.6-4.83 3.89-6.24 5.02-12.1 10.3-18 15.8-2.42 2.26-4.88 4.45-7.39 6.61-3.07 2.65-5.91 5.45-8.75 8.34-1.81 1.78-3.67 3.44-5.59 5.09-4.19 3.65-8.25 7.43-12.3 11.2-1.49 1.41-2.98 2.81-4.46 4.21-0.75 0.709-1.5 1.42-2.27 2.15-3.6 3.4-7.21 6.8-10.8 10.2-0.945 0.891-0.945 0.891-1.91 1.8-3.84 3.61-7.76 7.11-11.8 10.5-1.69 1.55-3.09 3.13-4.51 4.92-2.17 2.6-3.33 3.28-6.25 4.69l-1.75 2.19c-1.84 2.3-3.42 3.88-5.64 5.74-5.84 5.05-11.2 10.6-16.6 16.1-11.9 12.1-11.9 12.1-18.3 17.5-2.76 2.41-5.31 5.02-7.87 7.65-10.1 10.4-10.1 10.4-14.4 11.6-3.64-1.03-5.36-3.68-7.44-6.69-1.28-2.45-2.28-4.97-3.25-7.56-0.255-0.646-0.51-1.29-0.773-1.96-5.72-14.8-2.08-29.1 3.52-43.4 6.43-14.2 16.2-26.6 26.5-38.1 0.721-0.842 1.44-1.68 2.18-2.55 3.65-4.24 7.44-8.05 11.7-11.7 2.29-1.95 4.47-4 6.67-6.05 10.2-9.2 21.6-16.8 33.4-23.8 1.02-0.621 2.03-1.24 3.08-1.88 28.9-17.3 60.6-27.7 93.9-32.1 0.781-0.108 1.56-0.217 2.37-0.328 2.31-0.32 4.63-0.624 6.95-0.922 0.688-0.0925 1.38-0.185 2.08-0.28 4.08-0.489 7.59-0.342 11.6 0.53z" fill="#FBFEFF"/>
<path transform="translate(761 852)" d="m0 0c0.816 0.00983 1.63 0.0197 2.47 0.0298 7.17 0.143 14.3 0.614 21.5 1.16 1.56 0.117 1.56 0.117 3.16 0.237 16.6 1.4 16.6 1.4 20.8 5.51 0.639 0.784 1.28 1.57 1.94 2.38-11.4 11.7-24.1 22.4-37.2 32.3-5.06 3.84-9.88 7.94-14.7 12.1-2.85 2.44-5.76 4.8-8.68 7.15-5.07 4.13-9.87 8.5-14.7 12.9-2.24 2.07-4.52 4.08-6.84 6.05-4.23 3.66-8.12 7.65-12 11.7-2.16 2.17-4.43 4.19-6.75 6.19-4.26 3.69-8.21 7.63-12.2 11.7-1.33 1.36-2.66 2.71-4 4.06-0.577 0.589-1.15 1.18-1.75 1.79-1.95 1.87-3.95 3.63-6.01 5.39-4.31 3.74-8.22 7.78-12.1 11.9-1.48 1.53-2.96 3.06-4.45 4.59-2.31 2.38-4.61 4.77-6.88 7.18-2.22 2.35-4.47 4.66-6.73 6.97-0.672 0.727-1.34 1.45-2.04 2.2-4.76 4.79-4.76 4.79-8.5 5.1-2.24-0.241-4.32-0.608-6.5-1.21 0.33-0.66 0.66-1.32 1-2-1.21-0.371-1.21-0.371-2.44-0.75-1.27-0.619-1.27-0.619-2.56-1.25-0.625-2-0.625-2-1-4-3.28-2.19-6.21-3-10-4 0.33 0.99 0.66 1.98 1 3-0.99 0.33-1.98 0.66-3 1-0.568-0.615-1.14-1.23-1.72-1.86-4.5-4.71-8.04-8.15-14.3-10.1v-6c-0.66 0.33-1.32 0.66-2 1 1.42-3.33 3.1-5.2 5.88-7.5 2.84-2.4 5.54-4.83 8.12-7.5l5-5c0.599-0.611 1.2-1.22 1.82-1.85 3.83-3.89 7.75-7.57 11.9-11.1 8.88-7.78 17.4-16 26-24.1 4.83-4.55 9.68-9.07 14.6-13.6 2.77-2.55 5.53-5.11 8.27-7.69 6.18-5.8 12.4-11.4 19-16.7 2.14-1.73 4.2-3.51 6.25-5.34 5.83-5.16 12-9.85 18.2-14.6 0.911-0.712 1.82-1.42 2.76-2.16 5.99-4.67 5.99-4.67 8.42-6.34 2.1-1.46 2.1-1.46 2.82-4.5 1.36-0.155 1.36-0.155 2.75-0.312 3.21-0.395 3.21-0.395 4.94-2.21 3.37-2.16 6.62-1.88 10.5-1.79z" fill="#4F5DDF"/>
<path transform="translate(598,1061)" d="m0 0 1 2c2.36 0.71 4.66 1.29 7.06 1.81 0.743 0.167 1.49 0.335 2.25 0.507 2.56 0.571 5.12 1.13 7.69 1.68 0.962 0.211 1.92 0.422 2.91 0.639 18.4 4.02 36.3 6.59 55.1 7.36 0.33 0.99 0.66 1.98 1 3-1.32 0.66-2.64 1.32-4 2 0.33 0.33 0.66 0.66 1 1-0.0909 2.7-0.237 5.37-0.438 8.06-0.0522 0.759-0.104 1.52-0.158 2.3-0.13 1.88-0.267 3.76-0.404 5.64-0.33-0.99-0.66-1.98-1-3h-2c0.206 1.09 0.413 2.19 0.625 3.31 0.375 3.69 0.375 3.69-1.62 6.69-0.171 2.93-0.232 5.76-0.188 8.69 6.45e-4 0.778 0.00129 1.56 0.00195 2.36 0.0278 3.7 0.183 7.31 0.693 11 0.601 4.34 0.604 8.61 0.555 13-0.00451 0.775-0.00902 1.55-0.0137 2.35-0.0116 1.88-0.0296 3.77-0.0488 5.65-6.33 0.0632-12.7 0.0618-19 0-0.742-0.0058-1.48-0.0116-2.25-0.0176-21.4-0.297-42.4-5.59-62.8-12-1.52-0.454-1.52-0.454-3.07-0.918-8.68-2.83-16.6-7.51-24.6-11.9-2.11-1.13-4.24-2.22-6.38-3.3-1.17-0.597-2.34-1.19-3.55-1.81-1.02-0.513-2.05-1.03-3.1-1.55-2.27-1.57-2.27-1.57-3.29-3.53 0.0208-3.62 2.43-5.37 4.8-7.91 3.01-2.9 6.24-5.45 9.55-8 2.82-2.25 5.46-4.62 8.11-7.07 4.44-4.09 9.02-7.91 13.7-11.7 2.05-1.72 4.01-3.44 5.95-5.27 0.523-0.494 1.05-0.988 1.59-1.5 1.47-1.4 2.92-2.81 4.38-4.22 3.26-2.66 6.01-3.91 9.92-5.38z" fill="#4B3275"/>
<path transform="translate(300,949)" d="m0 0c0.99 0.66 1.98 1.32 3 2-2.19 3.5-4.48 6.61-7.25 9.68-3.66 4.15-6.92 8.5-10.1 13-0.562 0.787-1.12 1.57-1.7 2.39-1.13 1.58-2.25 3.16-3.37 4.74-1.35 1.9-2.71 3.79-4.07 5.68-17.9 25.2-30.8 53.9-25.9 85.5 4.77 23.5 17.1 43.9 37.1 57.5 5.3 3.5 10.7 6.71 16.4 9.48v2c-7.04 0.687-11.8-0.435-18.1-3.6-3.08-1.46-6.14-2.49-9.39-3.53-13.9-4.9-26.8-12.4-37.7-22.3-2.67-2.42-5.42-4.62-8.27-6.82-6.29-5.04-10.6-10.6-15-17.3-0.391-0.595-0.782-1.19-1.18-1.8-1.99-3.12-3.68-6.18-5.05-9.62-1.47-3.63-2.88-6.9-5.32-10-4.44-1.47-8.37-1.49-13-1 1.8-18 6.02-34.2 15-50 0.556-0.995 1.11-1.99 1.68-3.02 4.13-6.93 9.3-12.7 14.9-18.5 1.4-1.45 2.78-2.91 4.17-4.37 19.1-19.8 41.8-29.4 67.3-38.1 1.09-0.427 2.18-0.853 3.3-1.29 0.891-0.233 1.78-0.467 2.7-0.707z" fill="#4E5DDF"/>
<path transform="translate(607,981)" d="m0 0 2 1c-0.99 1.65-1.98 3.3-3 5 0.99 0.495 0.99 0.495 2 1-0.33 0.33-0.66 0.66-1 1 0.99 0.33 1.98 0.66 3 1 5.03 2.11 8.38 6.04 12 10 0.99-0.495 0.99-0.495 2-1v-3c8.87 2.96 8.87 2.96 12 7v2c1.98 0.33 3.96 0.66 6 1-0.66 0.66-1.32 1.32-2 2 2.31 0.66 4.62 1.32 7 2-4.91 5.93-10.2 11.3-15.7 16.7-1.4 1.39-2.81 2.79-4.21 4.18-3.44 3.41-6.88 6.82-10.3 10.2-1.94 1.92-3.88 3.85-5.82 5.77-1.82 1.81-3.64 3.61-5.47 5.41-0.821 0.818-1.64 1.64-2.49 2.48-0.724 0.716-1.45 1.43-2.19 2.17-1.87 1.93-1.87 1.93-2.87 4.24-0.92 1.79-0.92 1.79-3.63 2.66-4.36 1.49-6.75 4-9.98 7.19-1.24 1.19-2.48 2.37-3.72 3.56-0.609 0.58-1.22 1.16-1.84 1.76-2.37 2.2-4.85 4.23-7.37 6.25-4.5 3.6-8.73 7.41-12.9 11.3-3.95 3.66-8.08 7.02-12.4 10.3-2.09 1.78-3.61 3.42-5.06 5.75v3h-5c-0.652-1.96-1.3-3.91-1.94-5.88-0.351-1.03-0.701-2.06-1.06-3.12-0.183-0.831-0.366-1.66-0.555-2.52-1.86-3.19-3.87-3.7-7.32-4.7-0.762-0.197-1.52-0.393-2.31-0.596-0.743-0.216-1.49-0.432-2.25-0.654-3.6-0.995-6.53-1.53-10.3-1.5-3.67-0.0396-5.21-0.722-8.2-2.79-1.16-0.766-1.16-0.766-2.34-1.55-0.568-0.562-1.14-1.12-1.72-1.7v-4c-0.66-0.33-1.32-0.66-2-1 0.351-2.54 0.714-3.74 2.62-5.5 1.85-1.17 3.76-2.26 5.69-3.31 3.25-1.83 5.92-3.98 8.71-6.45 2.24-1.97 4.54-3.85 6.85-5.74 1.39-1.14 1.39-1.14 2.81-2.3 1.8-1.47 3.59-2.93 5.39-4.4 2.27-1.85 4.53-3.7 6.8-5.56 0.726-0.59 1.45-1.18 2.2-1.79 7.16-5.11 7.16-5.11 11.4-12.2-0.058-0.684-0.116-1.37-0.176-2.07-0.155-1.83-0.155-1.83-0.312-3.69 1.26 0.199 1.26 0.199 2.54 0.402 5.06-0.588 7.27-3.33 10.8-6.84 0.66-0.639 1.32-1.28 2-1.94 1.91-1.86 3.8-3.74 5.69-5.62 0.889-0.887 1.78-1.77 2.7-2.69 1.37-1.37 2.73-2.76 4.08-4.15 1.93-1.87 3.89-3.61 5.93-5.36 5.39-4.68 10.3-9.8 15.3-14.9 0.718-0.729 1.44-1.46 2.18-2.21 0.64-0.657 1.28-1.31 1.94-1.99 1.9-1.69 3.51-2.78 5.89-3.68z" fill="#3882F2"/>
<path transform="translate(484,963)" d="m0 0c5.54 1.19 9.64 2.27 13.5 6.56 5.07 4.98 11.6 4.63 18.4 5.05 3.42 0.228 5.97 1.06 9.14 2.39 2.5 0.0572 2.5 0.0572 5-0.188 3.61-0.0324 4.94 0.155 8.25 1.88 2.47 4.67 1.37 7.91 0.387 13-2.64 13.8 2.42 26.5 9.51 38.2 1.18 2.91 1.23 4.99 0.852 8.1-1.62 2.27-1.62 2.27-3.88 4.38-1.24 1.16-1.24 1.16-2.5 2.34-3.27 2.85-6.6 5.59-10 8.26-2.74 2.14-5.42 4.33-8.1 6.53-5.13 4.21-10.3 8.36-15.5 12.5-0.855 0.7-1.71 1.4-2.59 2.12-3.06 2.39-6.41 4.88-10.4 4.88-0.454-0.944-0.454-0.944-0.918-1.91-1.99-4.07-3.98-8.05-6.46-11.8-15.6-24.7-19.1-51.8-12.9-80.1 1.85-7.73 5-14.9 8.32-22.1z" fill="#4A3276"/>
<path transform="translate(838,391)" d="m0 0c20.1 1.41 39.9 7.68 58.9 14.1 1.12 0.374 1.12 0.374 2.26 0.755 22.7 7.65 22.7 7.65 31.8 12.2v2h-2c-0.33 0.66-0.66 1.32-1 2h-2c0.547 3.37 1.05 5.08 3 8 0.171 2.75 0.236 5.38 0.188 8.12-0.0108 0.771-0.0216 1.54-0.0327 2.34-0.0272 1.52-0.0609 3.03-0.102 4.55-0.0415 1.55-0.0614 3.1-0.0728 4.65-0.357 7.06-3.85 13.1-6.98 19.3-0.33 0.66-0.66 1.32-1 2h-2c-0.66 0.99-1.32 1.98-2 3-0.33 0.33-0.66 0.66-1 1-4.95-1.41-9.84-2.88-14.6-4.76-21.8-8.56-45.2-14.1-68.4-17.2v-2h2c-0.0606-0.744-0.121-1.49-0.184-2.25-0.599-7.81-1.03-15.6-1.38-23.4-0.0437-0.949-0.0875-1.9-0.133-2.88-0.205-4.77-0.354-9.55-0.41-14.3-0.0106-0.859-0.0211-1.72-0.032-2.6 0.218-3.97 1.01-8.1 3.14-11.5 2.11-0.742 2.11-0.742 4-1-0.66-0.66-1.32-1.32-2-2z" fill="#3882F2"/>
<path transform="translate(1258,633)" d="m0 0c3.32 1.26 6.38 2.69 9.45 4.47 0.838 0.483 1.68 0.967 2.54 1.46 0.89 0.517 1.78 1.03 2.7 1.57 1.9 1.09 3.8 2.19 5.7 3.28 0.948 0.545 1.9 1.09 2.87 1.65 13.2 7.54 26.5 14.8 39.8 22 2.89 1.57 5.78 3.15 8.67 4.73 13 7.06 26 13.9 39.1 20.7 5.92 3.06 11.8 6.18 17.7 9.36 2.61 1.36 5.21 2.66 7.87 3.92 1.11 0.535 1.11 0.535 2.25 1.08 1.43 0.684 2.87 1.36 4.32 2.01 1.94 0.928 1.94 0.928 5.01 2.79 0.33 1.32 0.66 2.64 1 4-4.45 0.99-4.45 0.99-9 2v-3c-1.3-0.42-1.3-0.42-2.62-0.848-3.22-1.1-6.35-2.32-9.51-3.59-15.8-6.08-32.4-7.62-49.2-9.12-0.712-0.0648-1.42-0.13-2.16-0.196-17.1-1.51-34.1-1.74-51.3-1.95-1.06-0.0138-2.11-0.0276-3.2-0.0419-2-0.0248-4-0.0449-6-0.0597-1.33-0.0156-1.33-0.0156-2.69-0.0315-0.776-0.0065-1.55-0.013-2.35-0.0197-2.02-0.138-2.02-0.138-5.02-1.14v-2c-0.539-0.156-1.08-0.313-1.63-0.474-6.1-1.89-11.4-4.53-16.9-7.71-1.23-0.695-1.23-0.695-2.48-1.4-1.99-1.13-3.98-2.27-5.96-3.41 0-4.8 1.32-6.14 4-10 1.4-3.01 2-4.67 2-8v-3h3c0.217-0.928 0.217-0.928 0.438-1.88 0.562-2.12 0.562-2.12 1.56-4.12 0.99-0.33 1.98-0.66 3-1 4.84-6.99 4.15-12.8 3-21 1.32 0.33 2.64 0.66 4 1v-2z" fill="#4B3276"/>
<path transform="translate(661 474)" d="m0 0c0.781 0.018 1.56 0.0361 2.37 0.0547 0.58 0.0232 1.16 0.0464 1.76 0.0703v2c1.36 0.124 1.36 0.124 2.75 0.25 9.91 1.44 19.2 5.87 28.1 10.2 1.08 0.524 2.15 1.05 3.26 1.59 3.32 1.63 6.62 3.27 9.93 4.91 1.01 0.501 2.02 1 3.07 1.52 13.1 6.52 25.4 13.7 37.6 21.9 3.91 2.62 7.86 5.16 11.8 7.72 0.692 0.449 1.38 0.899 2.1 1.36 0.971 0.629 0.971 0.629 1.96 1.27 0.903 0.588 0.903 0.588 1.82 1.19 1.49 0.935 3.04 1.78 4.59 2.61 2.09 1.45 2.09 1.45 2.9 3.63 0.0619 0.598 0.124 1.2 0.188 1.81-7.65-0.978-14.7-3.08-21.9-5.7-12.6-4.44-26-6.24-39.1-8.46-2.74-0.465-5.47-0.936-8.21-1.41-1.77-0.302-3.54-0.605-5.32-0.906-0.801-0.139-1.6-0.277-2.43-0.42-4.98-0.838-9.94-1.43-15-1.84-2.05-0.263-2.05-0.263-4.05-1.26-32.3-5.68-66.4-3.29-99-3-0.495-1.49-0.495-1.49-1-3l4-1v-2c1.37-0.524 1.37-0.524 2.77-1.06 8.56-3.32 16.8-7.04 24.9-11.2 3.23-1.66 6.47-3.29 9.71-4.92 0.643-0.324 1.29-0.648 1.95-0.981 5.99-3 12-5.85 18.1-8.62 0.882-0.402 1.76-0.804 2.67-1.22 11.8-5.28 11.8-5.28 17.7-5.09z" fill="#4B3276"/>
<path transform="translate(551 454)" d="m0 0c0.892 0.391 1.78 0.781 2.7 1.18 0.391 3.04 0.763 6.08 1.12 9.12 0.168 1.28 0.168 1.28 0.34 2.59 0.572 4.96 0.696 8.62-1.46 13.3l-3 3c-1.2 3.1-1.2 3.1-2 6h-2v12c1.49 0.495 1.49 0.495 3 1 0.495 4.45 0.495 4.45 1 9h2v-11c-1.49 0.495-1.49 0.495-3 1-1.12-2.25-1.12-2.25-2-5 0.875-2.31 0.875-2.31 2-4 1.49 0.495 1.49 0.495 3 1 0.562 1.75 0.562 1.75 1 4 0.351 0.701 0.701 1.4 1.06 2.12 1.19 3.65 0.906 6.77 0.617 10.6 0.0793 2.49 0.0793 2.49 2.34 3.95 0.98 0.671 0.98 0.671 1.98 1.36-13.2 2.18-26.4 3.7-39.6 5.32-27.7 3.29-27.7 3.29-55.2 8.24-9.37 1.95-18.7 3.49-28.2 4.44-0.33-0.66-0.66-1.32-1-2 3.93-4.63 8.58-7.16 13.8-10.1 3.88-2.29 7.45-4.89 11.1-7.58 14.8-11 30.1-21.3 45.4-31.5 9.1-6.05 18.1-12.3 27-18.5 1.15-0.795 1.15-0.795 2.32-1.61 1.67-1.19 3.31-2.43 4.92-3.7 0.869-0.664 1.74-1.33 2.63-2.01 1.15-0.915 1.15-0.915 2.33-1.85 2.42-1.09 2.42-1.09 5.72-0.273z" fill="#4E5DDF"/>
<path transform="translate(761 852)" d="m0 0c0.816 0.00983 1.63 0.0197 2.47 0.0298 7.17 0.143 14.3 0.614 21.5 1.16 1.04 0.0782 2.08 0.156 3.16 0.237 16.6 1.4 16.6 1.4 20.8 5.51 0.639 0.784 1.28 1.57 1.94 2.38-11.4 11.7-24.1 22.4-37.2 32.3-5.11 3.88-10 8.01-14.9 12.2-0.981 0.839-1.96 1.68-2.97 2.54-0.542 0.474-1.08 0.947-1.64 1.44-4.14 3.56-4.14 3.56-6.36 3.56-0.33-0.66-0.66-1.32-1-2-0.99 0.495-0.99 0.495-2 1-0.124-0.866-0.124-0.866-0.25-1.75-1.29-3.87-3.87-5.77-7.38-7.69-2.9-1.91-3.18-3.38-4.38-6.56-3.78-3.39-8.44-5.8-13-8l1-1c-0.804-0.598-1.61-1.2-2.44-1.81-2.56-2.19-2.56-2.19-3.56-5.19 22.1-17.4 22.1-17.4 25.2-19.5 2.1-1.46 2.1-1.46 2.82-4.5 1.36-0.155 1.36-0.155 2.75-0.312 3.21-0.395 3.21-0.395 4.94-2.21 3.37-2.16 6.62-1.88 10.5-1.79z" fill="#4B3276"/>
<path transform="translate(693,486)" d="m0 0c5.79 1.64 10.8 4.42 16.1 7.25 5.6 2.98 11.2 5.94 16.9 8.62 8.22 4.06 15.8 9.38 23.4 14.4 3.98 2.63 7.98 5.22 12 7.81 0.691 0.449 1.38 0.898 2.09 1.36 0.648 0.42 1.3 0.84 1.96 1.27 0.602 0.392 1.2 0.784 1.82 1.19 1.49 0.935 3.04 1.78 4.59 2.61 2.09 1.45 2.09 1.45 2.9 3.63 0.0928 0.897 0.0928 0.897 0.188 1.81-7.65-0.978-14.7-3.08-21.9-5.7-12.6-4.44-26-6.24-39.1-8.46-2.74-0.465-5.47-0.936-8.21-1.41-1.77-0.302-3.54-0.605-5.32-0.906-1.2-0.208-1.2-0.208-2.43-0.42-4.93-0.829-9.79-1.37-14.8-1.65-2.7-0.552-4.17-1.68-6.25-3.46 1.31-7.51 2.87-12.8 8.29-18.2 1.61-1.65 2.8-3.25 4.02-5.19 1.69-2.56 1.69-2.56 3.69-3.56v-1z" fill="#3882F2"/>
<path transform="translate(192,1065)" d="m0 0h12c0.785 1.47 1.57 2.94 2.38 4.46 1.06 1.97 2.12 3.94 3.18 5.91 0.514 0.966 1.03 1.93 1.56 2.93 5.41 10 10.9 18.6 19.9 25.7 1.34 1.1 2.67 2.2 4 3.31 0.577 0.471 1.16 0.941 1.75 1.43 1.25 1.26 1.25 1.26 1.25 3.26h-2c-0.206 0.639-0.412 1.28-0.625 1.94-1.38 2.06-1.38 2.06-4.5 2.81-0.949 0.0825-1.9 0.165-2.88 0.25-0.33 0.99-0.66 1.98-1 3-1.65-0.33-3.3-0.66-5-1 0.33 0.99 0.66 1.98 1 3h-4c-0.33 0.99-0.66 1.98-1 3-2.97 0.495-2.97 0.495-6 1-0.99 3.3-1.98 6.6-3 10-4.81-4.12-6.82-8.39-9.06-14.2-0.344-0.877-0.687-1.75-1.04-2.66-3.12-8.2-5.24-16.5-6.9-25.1-0.195-0.926-0.389-1.85-0.59-2.8-0.597-4.65-0.554-9.26-0.535-13.9-0.00387-0.958-0.00773-1.92-0.0117-2.9 0.00129-0.914 0.00258-1.83 0.00391-2.77 0.00113-0.831 0.00226-1.66 0.00342-2.52 0.129-2.06 0.129-2.06 1.13-4.06z" fill="#3882F2"/>
<path transform="translate(303,951)" d="m0 0c-2.19 3.5-4.48 6.61-7.25 9.68-3.66 4.15-6.92 8.5-10.1 13-0.559 0.782-1.12 1.56-1.7 2.37-6.54 9.16-13.1 18.3-18.9 27.9-1.95-2.92-2.45-4.63-3-8-0.763 0.0619-1.53 0.124-2.31 0.188-3.22-0.224-3.59-0.904-5.69-3.19-2.1-0.714-2.1-0.714-4-1v-7c-0.66-0.33-1.32-0.66-2-1-0.625-3.06-0.625-3.06-1-6h-2c-0.33 0.66-0.66 1.32-1 2-0.33-1.65-0.66-3.3-1-5 12.9-9.95 27.5-15.9 42.8-21.2 1.99-0.694 3.96-1.42 5.93-2.15 1.07-0.385 2.13-0.771 3.23-1.17 0.908-0.331 1.81-0.663 2.75-1 2.25-0.434 2.25-0.434 5.25 1.57z" fill="#3882F2"/>
<path transform="translate(253,1085)" d="m0 0c0.973 1.95 1.95 3.89 2.91 5.84 10.8 21.8 26.1 37.5 48.1 48.2v2c-7.04 0.687-11.8-0.435-18.1-3.6-3.08-1.46-6.14-2.49-9.39-3.53-13.6-4.76-30.3-12.5-39.6-23.9-1.04-3.56-0.559-4.44 1-8 2.56-2 2.56-2 5-3-0.66-0.33-1.32-0.66-2-1 1.3-1.5 2.6-2.99 3.91-4.49 1.29-1.47 1.29-1.47 1.09-3.51h4c0.124-0.639 0.248-1.28 0.375-1.94 0.206-0.681 0.412-1.36 0.625-2.06 0.66-0.33 1.32-0.66 2-1z" fill="#4B3277"/>
<path transform="translate(300,949)" d="m0 0c0.99 0.66 1.98 1.32 3 2-4 6.57-4 6.57-8 8-0.289-0.639-0.577-1.28-0.875-1.94-0.953-2.21-0.953-2.21-3.12-3.06 2.53-3.09 5.14-4.12 9-5z" fill="#4AA0FC"/>
<path transform="translate(763,526)" d="m0 0c4.12 1.45 7.54 3.33 11 6 0.33 1.32 0.66 2.64 1 4-3.63-0.66-7.26-1.32-11-2v-3c-0.66-0.66-1.32-1.32-2-2 0.66-0.33 1.32-0.66 2-1-0.33-0.66-0.66-1.32-1-2z" fill="#489FFC"/>
<path transform="translate(506,1087)" d="m0 0c2.75 2.5 2.75 2.5 5 5v2c-4.99-0.468-9.13-2.92-13-6v-2c3.44-1.23 4.97-1.02 8 1z" fill="#3D8CF5"/>
<path transform="translate(304,1140)" d="m0 0c2.97 0.99 5.94 1.98 9 3v2c-4.06-0.468-7.47-0.88-11-3 0.66-0.66 1.32-1.32 2-2z" fill="#3984F2"/>
</svg>
