<svg width="16" height="16" viewBox="0 0 16 16" fill="none" xmlns="http://www.w3.org/2000/svg">
<g id="x" clip-path="url(#clip0_614_1885)">
<path id="Vector" d="M15.1059 2.55686L9.66275 8L15.1059 13.4431C15.2215 13.5508 15.3142 13.6807 15.3785 13.825C15.4428 13.9693 15.4774 14.1251 15.4801 14.2831C15.4829 14.4411 15.4539 14.598 15.3947 14.7445C15.3355 14.891 15.2475 15.024 15.1357 15.1357C15.024 15.2475 14.891 15.3355 14.7445 15.3947C14.598 15.4539 14.4411 15.4829 14.2831 15.4801C14.1251 15.4774 13.9694 15.4428 13.825 15.3785C13.6807 15.3142 13.5508 15.2215 13.4431 15.1059L8 9.66274L2.55687 15.1059C2.33385 15.3137 2.03887 15.4268 1.73409 15.4214C1.4293 15.4161 1.1385 15.2926 0.922953 15.077C0.707403 14.8615 0.583932 14.5707 0.578555 14.2659C0.573177 13.9611 0.686313 13.6662 0.894124 13.4431L6.33726 8L0.894124 2.55686C0.686313 2.33384 0.573177 2.03887 0.578555 1.73408C0.583932 1.42929 0.707403 1.13849 0.922953 0.922944C1.1385 0.707395 1.4293 0.583923 1.73409 0.578546C2.03887 0.573168 2.33385 0.686303 2.55687 0.894115L8 6.33725L13.4431 0.894115C13.6662 0.686303 13.9611 0.573168 14.2659 0.578546C14.5707 0.583923 14.8615 0.707395 15.0771 0.922944C15.2926 1.13849 15.4161 1.42929 15.4215 1.73408C15.4268 2.03887 15.3137 2.33384 15.1059 2.55686ZM28 8C28 11.9556 26.827 15.8224 24.6294 19.1114C22.4318 22.4004 19.3082 24.9638 15.6537 26.4776C11.9991 27.9913 7.97782 28.3874 4.0982 27.6157C0.218579 26.844 -3.34508 24.9392 -6.14213 22.1421C-8.93918 19.3451 -10.844 15.7814 -11.6157 11.9018C-12.3874 8.02218 -11.9913 4.00085 -10.4776 0.34633C-8.96383 -3.30819 -6.40038 -6.43177 -3.1114 -8.62939C0.177584 -10.827 4.04438 -12 8 -12C13.3024 -11.9938 18.3859 -9.88464 22.1353 -6.13526C25.8846 -2.38588 27.9938 2.69758 28 8ZM25.6471 8C25.6471 4.50974 24.6121 1.09786 22.673 -1.80418C20.7339 -4.70623 17.9778 -6.96809 14.7532 -8.30376C11.5287 -9.63942 7.98043 -9.98889 4.55724 -9.30798C1.13404 -8.62706 -2.01036 -6.94634 -4.47835 -4.47836C-6.94633 -2.01037 -8.62705 1.13403 -9.30797 4.55723C-9.98888 7.98042 -9.63941 11.5287 -8.30375 14.7532C-6.96808 17.9778 -4.70622 20.7339 -1.80417 22.673C1.09787 24.6121 4.50975 25.647 8 25.647C12.6787 25.6419 17.1643 23.781 20.4726 20.4726C23.781 17.1643 25.6419 12.6787 25.6471 8Z" fill="#464E5F"/>
</g>
<defs>
<clipPath id="clip0_614_1885">
<rect width="16" height="16" fill="white"/>
</clipPath>
</defs>
</svg>
